<svg width="229" height="219" viewBox="0 0 229 219" fill="none" xmlns="http://www.w3.org/2000/svg">
<g filter="url(#filter0_i_6_7)">
<rect width="229" height="219" rx="23" fill="#1F2546"/>
</g>
<rect x="2" y="2" width="225" height="215" rx="21" stroke="black" stroke-opacity="0.2" stroke-width="4"/>
<g filter="url(#filter1_d_6_7)">
<path d="M107.605 36.7195C110.698 31.4618 118.302 31.4618 121.395 36.7195L153.739 91.6933C156.876 97.0263 153.031 103.75 146.844 103.75H82.1563C75.9687 103.75 72.1235 97.0263 75.2612 91.6933L107.605 36.7195Z" fill="#7E2A9F"/>
<path d="M109.329 37.7337C111.649 33.7904 117.351 33.7904 119.671 37.7337L152.015 92.7074C154.368 96.7072 151.484 101.75 146.844 101.75H82.1563C77.5156 101.75 74.6317 96.7073 76.985 92.7074L109.329 37.7337Z" stroke="#333333" stroke-opacity="0.6" stroke-width="4"/>
</g>
<g filter="url(#filter2_d_6_7)">
<circle cx="114" cy="156" r="37" fill="#7E2A9F"/>
<circle cx="114" cy="156" r="35" stroke="#333333" stroke-opacity="0.4" stroke-width="4"/>
</g>
<defs>
<filter id="filter0_i_6_7" x="0" y="0" width="229" height="219" filterUnits="userSpaceOnUse" color-interpolation-filters="sRGB">
<feFlood flood-opacity="0" result="BackgroundImageFix"/>
<feBlend mode="normal" in="SourceGraphic" in2="BackgroundImageFix" result="shape"/>
<feColorMatrix in="SourceAlpha" type="matrix" values="0 0 0 0 0 0 0 0 0 0 0 0 0 0 0 0 0 0 127 0" result="hardAlpha"/>
<feOffset/>
<feGaussianBlur stdDeviation="10.5"/>
<feComposite in2="hardAlpha" operator="arithmetic" k2="-1" k3="1"/>
<feColorMatrix type="matrix" values="0 0 0 0 0 0 0 0 0 0 0 0 0 0 0 0 0 0 0.25 0"/>
<feBlend mode="normal" in2="shape" result="effect1_innerShadow_6_7"/>
</filter>
<filter id="filter1_d_6_7" x="70.1442" y="32.7762" width="88.7116" height="79.9738" filterUnits="userSpaceOnUse" color-interpolation-filters="sRGB">
<feFlood flood-opacity="0" result="BackgroundImageFix"/>
<feColorMatrix in="SourceAlpha" type="matrix" values="0 0 0 0 0 0 0 0 0 0 0 0 0 0 0 0 0 0 127 0" result="hardAlpha"/>
<feOffset dy="5"/>
<feGaussianBlur stdDeviation="2"/>
<feComposite in2="hardAlpha" operator="out"/>
<feColorMatrix type="matrix" values="0 0 0 0 0 0 0 0 0 0 0 0 0 0 0 0 0 0 0.25 0"/>
<feBlend mode="normal" in2="BackgroundImageFix" result="effect1_dropShadow_6_7"/>
<feBlend mode="normal" in="SourceGraphic" in2="effect1_dropShadow_6_7" result="shape"/>
</filter>
<filter id="filter2_d_6_7" x="72" y="118" width="84" height="84" filterUnits="userSpaceOnUse" color-interpolation-filters="sRGB">
<feFlood flood-opacity="0" result="BackgroundImageFix"/>
<feColorMatrix in="SourceAlpha" type="matrix" values="0 0 0 0 0 0 0 0 0 0 0 0 0 0 0 0 0 0 127 0" result="hardAlpha"/>
<feOffset dy="4"/>
<feGaussianBlur stdDeviation="2.5"/>
<feComposite in2="hardAlpha" operator="out"/>
<feColorMatrix type="matrix" values="0 0 0 0 0 0 0 0 0 0 0 0 0 0 0 0 0 0 0.25 0"/>
<feBlend mode="normal" in2="BackgroundImageFix" result="effect1_dropShadow_6_7"/>
<feBlend mode="normal" in="SourceGraphic" in2="effect1_dropShadow_6_7" result="shape"/>
</filter>
</defs>
</svg>
